<svg width="140" height="50" viewBox="0 0 140 50" fill="none" xmlns="http://www.w3.org/2000/svg">
<path d="M47.1227 20.2036V20.7851H45.7545V29.4653H47.1227V30.0467H43.6399V29.4653H45.0081V20.7436H43.6399V20.1621H47.1227V20.2036Z" fill="#2E3238"/>
<path d="M53.7565 29.4237H54.7516V30.0052H51.8078V29.4237H52.9687V25.312C52.9687 24.6475 52.8443 24.1491 52.5955 23.8169C52.3468 23.4846 51.9322 23.3185 51.3517 23.3185C51.0615 23.3185 50.8127 23.4016 50.5639 23.5262C50.3151 23.6508 50.1493 23.8169 49.9834 24.0661C49.8176 24.3153 49.6932 24.5645 49.6103 24.8967C49.5274 25.229 49.4859 25.5612 49.4859 25.935V29.4652H50.5639V30.0467H47.6201V29.4652H48.6981V23.4846H47.6201V22.9032H49.4444V24.0246H49.4859C49.8591 23.1524 50.5639 22.7371 51.559 22.7371C52.3468 22.7371 52.8858 22.9447 53.176 23.4016C53.5077 23.8169 53.6735 24.4814 53.6735 25.312V29.4237H53.7565Z" fill="#2E3238"/>
<path d="M61.4269 20.2036V29.4652H62.3806V30.0467H60.6806V28.8423H60.6392C60.3489 29.3406 60.0587 29.6729 59.727 29.9221C59.3953 30.1297 58.9392 30.2543 58.3588 30.2543C57.4881 30.2543 56.8247 29.9221 56.3271 29.2991C55.8296 28.6346 55.5808 27.7209 55.5808 26.558C55.5808 25.9766 55.6637 25.4782 55.7881 25.0213C55.9125 24.5645 56.1198 24.1907 56.3686 23.8584C56.6174 23.5262 56.9076 23.277 57.2393 23.1108C57.571 22.9447 57.9856 22.8617 58.4002 22.8617C58.9392 22.8617 59.3953 22.9863 59.7685 23.1939C60.1416 23.4016 60.4733 23.7754 60.7221 24.2322H60.7635V20.8681H59.5197V20.2867H61.4269V20.2036ZM58.5661 29.6314C58.9392 29.6314 59.2295 29.5483 59.5197 29.3822C59.8099 29.216 60.0172 29.0084 60.2245 28.7177C60.3904 28.4269 60.5562 28.0947 60.6392 27.6794C60.7221 27.264 60.7635 26.8487 60.7635 26.3503C60.7635 25.3536 60.5562 24.606 60.1416 24.1076C59.727 23.5677 59.188 23.3185 58.5661 23.3185C58.2344 23.3185 57.9027 23.4016 57.6124 23.5262C57.3222 23.6923 57.0734 23.9 56.9076 24.1491C56.7003 24.4399 56.5759 24.7721 56.4515 25.1459C56.3271 25.5197 56.2857 25.9766 56.2857 26.4334C56.2857 26.8903 56.3271 27.3056 56.4515 27.7209C56.5759 28.0947 56.7003 28.4269 56.9076 28.7177C57.1149 29.0084 57.3637 29.216 57.6124 29.3822C57.8612 29.5483 58.2344 29.6314 58.5661 29.6314Z" fill="#2E3238"/>
<path d="M63.9148 26.5995C63.9148 27.5132 64.1221 28.2608 64.5367 28.8007C64.9099 29.3406 65.4903 29.5898 66.1952 29.5898C66.7342 29.5898 67.1903 29.4652 67.5634 29.216C67.9366 28.9669 68.1853 28.51 68.2683 27.887H68.9317C68.8073 28.6761 68.517 29.2576 68.0195 29.6314C67.522 30.0052 66.9415 30.2128 66.1952 30.2128C65.2416 30.2128 64.4952 29.8806 63.9562 29.216C63.4172 28.5515 63.1685 27.6378 63.1685 26.4749C63.1685 25.312 63.4172 24.3983 63.9562 23.7338C64.4952 23.0693 65.2416 22.7371 66.1952 22.7371C67.1073 22.7371 67.8122 23.0693 68.3097 23.7338C68.8073 24.3983 69.056 25.3536 69.056 26.5995H63.9148ZM68.3097 26.0181C68.3097 25.1459 68.1024 24.4814 67.7293 24.0246C67.3561 23.5677 66.8171 23.3185 66.1122 23.3185C65.5318 23.3185 65.0342 23.5262 64.6611 23.983C64.2465 24.4399 64.0392 25.1044 63.9148 26.0181H68.3097Z" fill="#2E3238"/>
<path d="M72.3313 22.9446V23.526H71.3362L73.0361 25.8933L74.7775 23.526H73.9068V22.9446H76.3116V23.526H75.6068L73.4922 26.3917L75.7726 29.4651H76.3946V30.0465H73.9898V29.4651H74.9434L73.0361 26.8901L71.1289 29.4651H72.0825V30.0465H69.6777V29.4651H70.2997L72.5801 26.3917L70.507 23.526H69.885V22.9446H72.3313Z" fill="#2E3238"/>
<path d="M82.1164 20.2036V20.7851H80.6653L83.5676 29.2161H83.6091L86.5114 20.7851H85.0602V20.2036H88.2113V20.7851H87.2992L84.0237 30.0467H83.1115L79.836 20.7436H78.9653V20.1621H82.1164V20.2036Z" fill="#2E3238"/>
<path d="M88.626 26.5995C88.626 27.5132 88.8333 28.2608 89.2479 28.8007C89.621 29.3406 90.2015 29.5898 90.9064 29.5898C91.4454 29.5898 91.9014 29.4652 92.2746 29.216C92.6478 28.9669 92.8965 28.51 92.9794 27.887H93.6428C93.5185 28.6761 93.2282 29.2576 92.7307 29.6314C92.2331 30.0052 91.6527 30.2128 90.9064 30.2128C89.9527 30.2128 89.2064 29.8806 88.6674 29.216C88.1284 28.5515 87.8796 27.6378 87.8796 26.4749C87.8796 25.312 88.1284 24.3983 88.6674 23.7338C89.2064 23.0693 89.9527 22.7371 90.9064 22.7371C91.8185 22.7371 92.5234 23.0693 93.0209 23.7338C93.5185 24.3983 93.7672 25.3536 93.7672 26.5995H88.626ZM93.0624 26.0181C93.0624 25.1459 92.8551 24.4814 92.4819 24.0246C92.1088 23.5677 91.5697 23.3185 90.8649 23.3185C90.2844 23.3185 89.7869 23.5262 89.4137 23.983C88.9991 24.4399 88.7918 25.1044 88.6674 26.0181H93.0624Z" fill="#2E3238"/>
<path d="M100.567 29.4237H101.562V30.0052H98.6183V29.4237H99.7792V25.312C99.7792 24.6475 99.6549 24.1491 99.4061 23.8169C99.1573 23.4846 98.7427 23.3185 98.1622 23.3185C97.872 23.3185 97.6232 23.4016 97.3745 23.5262C97.1257 23.6508 96.9598 23.8169 96.794 24.0661C96.6281 24.3153 96.5038 24.5645 96.4208 24.8967C96.3379 25.229 96.2964 25.5612 96.2964 25.935V29.4652H97.3745V30.0467H94.4307V29.4652H95.5087V23.4846H94.4307V22.9032H96.255V24.0246H96.2964C96.6696 23.1524 97.3745 22.7371 98.3695 22.7371C99.1573 22.7371 99.6963 22.9447 99.9866 23.4016C100.318 23.8169 100.484 24.4814 100.484 25.312V29.4237H100.567Z" fill="#2E3238"/>
<path d="M103.967 22.9446H105.874V23.526H103.967V28.5514C103.967 28.9252 104.05 29.2159 104.174 29.382C104.298 29.5482 104.464 29.6312 104.672 29.6312C104.92 29.6312 105.128 29.5482 105.294 29.3405C105.459 29.1329 105.542 28.8421 105.542 28.4268V28.1361H106.123V28.3022C106.123 28.9252 105.998 29.382 105.708 29.7143C105.418 30.0466 105.086 30.2127 104.63 30.2127C104.133 30.2127 103.801 30.0881 103.594 29.7974C103.386 29.5066 103.262 29.1329 103.262 28.676V23.4845H102.018V22.9031H103.262V21.4079L104.008 21.1172V22.9446H103.967Z" fill="#2E3238"/>
<path d="M108.445 22.9446V27.6377C108.445 28.3022 108.569 28.8006 108.818 29.1329C109.067 29.4651 109.481 29.6313 110.062 29.6313C110.352 29.6313 110.601 29.5897 110.808 29.4651C111.015 29.3405 111.223 29.1744 111.389 28.9667C111.554 28.7591 111.679 28.4684 111.762 28.1776C111.845 27.8869 111.886 27.5131 111.886 27.1393V23.5261H110.808V22.9446H112.632V29.4651H113.71V30.0466H111.886V28.8837H111.845C111.679 29.3405 111.389 29.6728 111.015 29.8804C110.642 30.1296 110.228 30.2127 109.772 30.2127C108.984 30.2127 108.445 30.005 108.154 29.5482C107.823 29.1329 107.657 28.4684 107.657 27.6377V23.4845H106.662V22.9031H108.445V22.9446Z" fill="#2E3238"/>
<path d="M118.395 23.4429C118.395 23.4429 118.312 23.4014 118.23 23.4014C118.147 23.4014 118.064 23.4014 118.022 23.4014C117.691 23.4014 117.4 23.4844 117.152 23.609C116.903 23.7336 116.695 23.9413 116.53 24.1489C116.364 24.3981 116.239 24.6473 116.198 24.938C116.115 25.2288 116.074 25.561 116.074 25.8933V29.4235H117.4V30.0049H114.208V29.4235H115.286V23.4844H114.208V22.903H116.032V24.1489H116.074C116.239 23.6921 116.447 23.3183 116.778 23.0691C117.11 22.8199 117.483 22.6953 117.898 22.6953C118.064 22.6953 118.188 22.6953 118.271 22.7368V23.4429H118.395Z" fill="#2E3238"/>
<path d="M119.847 26.5995C119.847 27.5132 120.054 28.2608 120.469 28.8007C120.842 29.3406 121.422 29.5898 122.127 29.5898C122.666 29.5898 123.122 29.4652 123.495 29.216C123.868 28.9669 124.117 28.51 124.2 27.887H124.864C124.739 28.6761 124.449 29.2576 123.951 29.6314C123.454 30.0052 122.873 30.2128 122.127 30.2128C121.173 30.2128 120.427 29.8806 119.888 29.216C119.349 28.5515 119.1 27.6378 119.1 26.4749C119.1 25.312 119.349 24.3983 119.888 23.7338C120.427 23.0693 121.173 22.7371 122.127 22.7371C123.039 22.7371 123.744 23.0693 124.242 23.7338C124.739 24.3983 124.988 25.3536 124.988 26.5995H119.847ZM124.242 26.0181C124.242 25.1459 124.034 24.4814 123.661 24.0246C123.288 23.5677 122.749 23.3185 122.044 23.3185C121.464 23.3185 120.966 23.5262 120.593 23.983C120.178 24.4399 119.971 25.1044 119.847 26.0181H124.242Z" fill="#2E3238"/>
<path d="M130.254 23.7754V22.9447H130.834V25.3536H130.254V25.0213C130.254 24.6475 130.212 24.3568 130.088 24.1491C129.963 23.9415 129.797 23.7338 129.632 23.6092C129.466 23.4846 129.258 23.4016 129.051 23.36C128.844 23.3185 128.637 23.277 128.471 23.277C127.932 23.277 127.559 23.4016 127.268 23.6923C126.978 23.983 126.854 24.3568 126.854 24.8137C126.854 25.0213 126.895 25.1874 126.978 25.3536C127.061 25.5197 127.185 25.6028 127.31 25.6858C127.476 25.7689 127.683 25.852 127.89 25.8935C128.098 25.935 128.346 25.9766 128.595 26.0181C128.844 26.0596 129.051 26.1011 129.3 26.1427C129.549 26.1842 129.715 26.2257 129.922 26.3088C130.254 26.4749 130.544 26.6826 130.71 26.9318C130.875 27.181 131 27.5132 131 27.9701C131 28.7177 130.793 29.2576 130.336 29.6314C129.88 30.0052 129.3 30.1713 128.554 30.1713C128.139 30.1713 127.724 30.0882 127.393 29.9221C127.061 29.756 126.812 29.4652 126.646 29.0499V30.0052H126.066V27.5132H126.646C126.688 28.2193 126.854 28.7592 127.227 29.0914C127.559 29.4237 128.015 29.5898 128.554 29.5898C129.093 29.5898 129.507 29.4652 129.839 29.1745C130.129 28.9253 130.295 28.51 130.295 28.0531C130.295 27.6794 130.212 27.4302 130.088 27.264C129.963 27.0979 129.756 26.9733 129.507 26.8903C129.341 26.8487 129.134 26.8072 128.927 26.7657C128.719 26.7241 128.512 26.6826 128.263 26.6826C128.056 26.6411 127.807 26.5995 127.6 26.558C127.393 26.5165 127.185 26.4334 126.978 26.3503C126.729 26.2257 126.563 26.0596 126.398 25.852C126.232 25.6443 126.149 25.3536 126.149 24.9798C126.149 24.6475 126.19 24.3568 126.315 24.0661C126.439 23.7754 126.605 23.5677 126.812 23.36C127.02 23.1524 127.268 23.0278 127.517 22.9032C127.807 22.7786 128.098 22.7371 128.388 22.7371C128.844 22.7371 129.217 22.8201 129.507 22.9863C129.797 23.1524 130.046 23.4016 130.254 23.7754Z" fill="#2E3238"/>
<mask id="mask0_45_1865" style="mask-type:luminance" maskUnits="userSpaceOnUse" x="8" y="14" width="26" height="22">
<path d="M33.067 14.8457H8.10693V35.321H33.067V14.8457Z" fill="white"/>
</mask>
<g mask="url(#mask0_45_1865)">
<path d="M19.4675 14.8457H8.10693V17.13H19.4675V14.8457Z" fill="#2E3238"/>
<path d="M30.8281 19.3728H14.9067V21.6571H30.7866V19.3728H30.8281Z" fill="#2E3238"/>
<path d="M33.067 23.9412H14.9067V26.2254H33.067V23.9412Z" fill="#2E3238"/>
<path d="M30.8281 28.4683H14.9067V30.7525H30.7866V28.4683H30.8281Z" fill="#2E3238"/>
<path d="M26.2673 33.0366H14.9067V35.3209H26.2673V33.0366Z" fill="#2E3238"/>
</g>
</svg>
