<svg width="32" height="35" viewBox="0 0 32 35" fill="none" xmlns="http://www.w3.org/2000/svg">
<g clip-path="url(#clip0_1684_24912)">
<path d="M24.2726 16.1056C24.516 16.0763 24.7494 16.0756 24.9634 16.1056C25.0874 15.8208 25.1088 15.3305 24.9974 14.7968C24.8314 14.003 24.6073 13.5228 24.1439 13.5975C23.6805 13.6722 23.6631 14.2472 23.8292 15.041C23.9225 15.4873 24.0879 15.8695 24.2726 16.1056Z" fill="black"/>
<path d="M20.2925 16.7338C20.6245 16.8792 20.8279 16.976 20.9079 16.8919C20.9593 16.8392 20.9439 16.7392 20.8646 16.6097C20.7012 16.3423 20.3638 16.0714 20.0071 15.9187C19.2762 15.6038 18.4047 15.7085 17.7326 16.1922C17.5105 16.3549 17.3005 16.5804 17.3305 16.7171C17.3405 16.7612 17.3732 16.7945 17.4512 16.8059C17.6339 16.8265 18.2734 16.5037 19.0102 16.4583C19.5303 16.4263 19.961 16.5884 20.2925 16.7338Z" fill="black"/>
<path d="M19.6245 17.1146C19.1925 17.1827 18.9544 17.3254 18.801 17.4582C18.6704 17.5723 18.5897 17.6983 18.5903 17.787L18.6237 17.8658L18.695 17.8931C18.7924 17.8931 19.0111 17.8057 19.0111 17.8057C19.6125 17.5903 20.0093 17.6163 20.402 17.661C20.6194 17.6857 20.7221 17.699 20.7695 17.6243C20.7835 17.6029 20.8008 17.5569 20.7574 17.4862C20.6561 17.3221 20.22 17.0446 19.6252 17.1153L19.6245 17.1146Z" fill="black"/>
<path d="M22.9288 18.513C23.2222 18.6571 23.5449 18.6004 23.6502 18.3863C23.7556 18.1721 23.6029 17.882 23.3095 17.7379C23.0161 17.5938 22.6934 17.6505 22.588 17.8646C22.4827 18.0787 22.6354 18.3689 22.9288 18.513Z" fill="black"/>
<path d="M24.8151 16.8648C24.577 16.8608 24.379 17.1223 24.3736 17.4498C24.3683 17.7767 24.557 18.0448 24.7951 18.0488C25.0331 18.0528 25.2312 17.7913 25.2365 17.4645C25.2418 17.1376 25.0531 16.8695 24.8151 16.8648Z" fill="black"/>
<path d="M8.80687 22.7604C8.74752 22.6864 8.65017 22.709 8.55615 22.7304C8.49013 22.7457 8.41545 22.7631 8.3341 22.7617C8.15873 22.7584 8.01004 22.6837 7.92669 22.5556C7.818 22.3889 7.82467 22.14 7.94402 21.8552L8.00003 21.7278C8.19141 21.2989 8.51081 20.5804 8.15207 19.8967C7.88201 19.3817 7.44059 19.0609 6.91048 18.9935C6.40171 18.9288 5.8776 19.1176 5.54353 19.4865C5.01609 20.0681 4.93407 20.8599 5.03609 21.1401C5.07343 21.2428 5.13211 21.2709 5.17412 21.2769C5.26414 21.2889 5.39617 21.2235 5.47952 21L5.50352 20.9273C5.54086 20.8092 5.60954 20.5891 5.72223 20.4123C5.85826 20.1996 6.0703 20.0528 6.31969 19.9994C6.57307 19.9454 6.83246 19.9934 7.04917 20.1355C7.41858 20.3777 7.56061 20.8299 7.40324 21.2622C7.32189 21.4856 7.1892 21.9126 7.21854 22.2634C7.27789 22.9739 7.71464 23.2594 8.10672 23.2894C8.48813 23.3041 8.75486 23.0893 8.8222 22.9325C8.86221 22.8398 8.8282 22.7838 8.80687 22.7591V22.7604Z" fill="black"/>
<path d="M30.8289 21.4611C30.8143 21.4097 30.7196 21.0635 30.5896 20.6466L30.3248 19.9362C30.8463 19.1551 30.8556 18.4567 30.7863 18.0611C30.7123 17.5708 30.5082 17.1525 30.0968 16.721C29.6854 16.2887 28.8445 15.8464 27.6623 15.5149L27.0422 15.3428C27.0388 15.3175 27.0095 13.8799 26.9828 13.2629C26.9635 12.8166 26.9248 12.1209 26.7088 11.4345C26.4514 10.5059 26.0033 9.69411 25.4432 9.17447C26.9882 7.57285 27.9524 5.8078 27.9497 4.29423C27.945 1.38316 24.3716 0.501973 19.9674 2.32639L19.0345 2.72263C19.0305 2.71863 17.3475 1.06698 17.3222 1.04496C12.3011 -3.33631 -3.39876 14.1207 1.62094 18.3606L2.71783 19.2905C2.43311 20.0276 2.32175 20.8728 2.4131 21.7813C2.53046 22.948 3.13192 24.0667 4.10745 24.9312C5.03298 25.7517 6.25056 26.2713 7.43147 26.27C9.38454 30.7733 13.8475 33.5356 19.0805 33.6911C24.6937 33.8578 29.406 31.2229 31.3804 26.4894C31.5097 26.1572 32.0579 24.6604 32.0579 23.3389C32.0579 22.0108 31.3077 21.4604 30.8296 21.4604L30.8289 21.4611ZM7.86289 25.0052C7.69219 25.0346 7.51815 25.0459 7.34278 25.0419C5.6471 24.9965 3.81606 23.4696 3.63402 21.6586C3.43265 19.6574 4.45486 18.1165 6.26523 17.7516C6.48127 17.7082 6.74333 17.6829 7.02538 17.6975C8.03959 17.7529 9.5339 18.532 9.8753 20.742C10.1774 22.6992 9.69727 24.6924 7.86289 25.0052ZM5.96983 16.5542C4.84294 16.7737 3.85007 17.412 3.24261 18.2946C2.87987 17.9917 2.20306 17.4054 2.0837 17.1772C1.11417 15.3355 3.14192 11.7547 4.55821 9.7328C8.05893 4.73516 13.5414 0.952908 16.0799 1.63865C16.4927 1.75539 17.8589 3.34033 17.8589 3.34033C17.8589 3.34033 15.3218 4.7485 12.9693 6.71167C9.79929 9.15379 7.40413 12.7026 5.96983 16.5542ZM23.7655 24.2568C23.8022 24.2414 23.8275 24.1987 23.8235 24.1574C23.8182 24.106 23.7722 24.0687 23.7208 24.074C23.7208 24.074 21.0649 24.4676 18.5558 23.5484C18.8291 22.6598 19.556 22.9807 20.6542 23.0694C22.6339 23.1875 24.4083 22.898 25.7192 22.5217C26.8555 22.1955 28.3478 21.5525 29.5073 20.6373C29.8981 21.4965 30.0361 22.4417 30.0361 22.4417C30.0361 22.4417 30.3388 22.3877 30.5916 22.5431C30.8303 22.6905 31.0056 22.996 30.8863 23.7872C30.6422 25.2647 30.0148 26.4634 28.9599 27.5667C28.3178 28.2585 27.5383 28.8595 26.6461 29.2964C26.1727 29.5453 25.6679 29.7607 25.1351 29.9348C21.1583 31.2343 17.0868 29.8054 15.7745 26.7376C15.6698 26.5068 15.5811 26.2653 15.5111 26.0132C14.9517 23.9913 15.4264 21.5658 16.9107 20.0389C17.0021 19.9415 17.0955 19.8268 17.0955 19.6827C17.0955 19.562 17.0188 19.4352 16.9528 19.3452C16.4333 18.5921 14.6349 17.308 14.9964 14.8232C15.2557 13.0381 16.8161 11.7814 18.271 11.8561L18.6398 11.8774C19.2699 11.9148 19.82 11.9955 20.3395 12.0175C21.2083 12.0548 21.9891 11.9288 22.914 11.1576C23.226 10.8975 23.4761 10.672 23.8995 10.6C23.9442 10.5926 24.0549 10.5526 24.2756 10.5633C24.5016 10.5753 24.7164 10.6373 24.9097 10.7661C25.6512 11.2597 25.7566 12.4558 25.7952 13.3303C25.8172 13.8299 25.8773 15.038 25.8979 15.3842C25.9453 16.1773 26.1533 16.2887 26.5747 16.4281C26.8121 16.5062 27.0322 16.5642 27.3562 16.6556C28.3378 16.9311 28.9199 17.2113 29.2873 17.5701C29.506 17.7949 29.608 18.0331 29.6394 18.2612C29.7554 19.1064 28.9839 20.1497 26.9415 21.0982C24.709 22.1348 22.0011 22.397 20.1301 22.1889L19.4746 22.1148C17.9776 21.9134 17.1241 23.8485 18.0223 25.174C18.6011 26.0285 20.1781 26.5842 21.7557 26.5848C25.3732 26.5855 28.1537 25.0399 29.1879 23.7051L29.2706 23.587C29.3213 23.5103 29.2793 23.4683 29.2159 23.5117C28.3711 24.09 24.6177 26.3867 20.6028 25.6956C20.6028 25.6956 20.1147 25.6156 19.67 25.4421C19.3159 25.3047 18.5758 24.9639 18.4857 24.2034C21.7257 25.206 23.7655 24.2581 23.7655 24.2581V24.2568ZM18.6331 23.6504L18.6338 23.6511L18.6344 23.6524L18.6331 23.6504ZM12.4352 9.71145C13.6794 8.2726 15.2117 7.02185 16.584 6.31944C16.6314 6.29542 16.682 6.34679 16.656 6.39348C16.5473 6.59093 16.3373 7.01385 16.2706 7.33404C16.2599 7.38407 16.3146 7.42142 16.3566 7.39274C17.2101 6.81039 18.6958 6.18669 19.9987 6.10664C20.0547 6.10331 20.0814 6.17468 20.0374 6.20937C19.8393 6.36146 19.6226 6.57159 19.4646 6.78438C19.4379 6.8204 19.4633 6.87243 19.5079 6.8731C20.4228 6.87977 21.7124 7.19996 22.5526 7.67157C22.6093 7.70359 22.5692 7.81366 22.5052 7.79898C21.2336 7.50748 19.1519 7.28601 16.9894 7.81366C15.059 8.2846 13.5854 9.01171 12.5105 9.79417C12.4565 9.83353 12.3912 9.76282 12.4352 9.71145Z" fill="black"/>
</g>
<defs>
<clipPath id="clip0_1684_24912">
<rect width="32" height="34.0426" fill="white"/>
</clipPath>
</defs>
</svg>
