<svg width="32" height="33" viewBox="0 0 32 33" fill="none" xmlns="http://www.w3.org/2000/svg">
<g clip-path="url(#clip0_1684_24790)">
<path fill-rule="evenodd" clip-rule="evenodd" d="M19.0499 7.83783C19.9407 7.01244 20.4985 5.83037 20.4985 4.51749C20.4985 2.02255 18.484 0 15.9988 0C13.5137 0 11.4992 2.02255 11.4992 4.51749C11.4992 5.83042 12.057 7.01253 12.9479 7.83793L5.31531 23.1634C5.05078 23.1148 4.77818 23.0894 4.49967 23.0894C2.01457 23.0894 0 25.1119 0 27.6069C0 30.1018 2.01457 32.1243 4.49967 32.1243C6.55106 32.1243 8.28182 30.7462 8.82346 28.8617H23.1742C23.7159 30.7462 25.4467 32.1243 27.498 32.1243C29.9831 32.1243 31.9977 30.1018 31.9977 27.6069C31.9977 25.1119 29.9831 23.0894 27.498 23.0894C27.2195 23.0894 26.9469 23.1148 26.6826 23.1634L19.0499 7.83783ZM24.4469 24.2864L16.8144 8.96095C16.5499 9.00957 16.2773 9.03497 15.9988 9.03497C15.7204 9.03497 15.4479 9.00958 15.1834 8.96097L7.55083 24.2865C8.14612 24.8382 8.59274 25.5492 8.82349 26.352H23.1742C23.405 25.5491 23.8516 24.8381 24.4469 24.2864Z" fill="#0BD9A5"/>
</g>
<defs>
<clipPath id="clip0_1684_24790">
<rect width="32" height="32.1829" fill="white"/>
</clipPath>
</defs>
</svg>
