<svg width="14" height="14" viewBox="0 0 14 14" fill="none" xmlns="http://www.w3.org/2000/svg">
    <path fillRule="evenodd" clipRule="evenodd"
        d="M5 1.5H4.97812C4.2966 1.5 3.75458 1.49999 3.31729 1.53572C2.86949 1.57231 2.48765 1.64884 2.13803 1.82698C1.57354 2.1146 1.1146 2.57354 0.826981 3.13803C0.648839 3.48765 0.572308 3.86949 0.535721 4.31729C0.499993 4.75458 0.499996 5.2966 0.5 5.97812V6V8V8.02188C0.499996 8.7034 0.499993 9.24542 0.535721 9.68271C0.572308 10.1305 0.648839 10.5123 0.826981 10.862C1.1146 11.4265 1.57354 11.8854 2.13803 12.173C2.48765 12.3512 2.86949 12.4277 3.31729 12.4643C3.75457 12.5 4.29657 12.5 4.97806 12.5H4.97811H5H9H9.02189H9.02194C9.70343 12.5 10.2454 12.5 10.6827 12.4643C11.1305 12.4277 11.5123 12.3512 11.862 12.173C12.4265 11.8854 12.8854 11.4265 13.173 10.862C13.3512 10.5123 13.4277 10.1305 13.4643 9.68271C13.5 9.24543 13.5 8.70343 13.5 8.02194V8.02189V8V6V5.97811V5.97806C13.5 5.29657 13.5 4.75457 13.4643 4.31729C13.4277 3.86949 13.3512 3.48765 13.173 3.13803C12.8854 2.57354 12.4265 2.1146 11.862 1.82698C11.5123 1.64884 11.1305 1.57231 10.6827 1.53572C10.2454 1.49999 9.7034 1.5 9.02188 1.5H9H5ZM2.59202 2.71799C2.77717 2.62365 3.01276 2.56393 3.39872 2.5324C3.79052 2.50039 4.29168 2.5 5 2.5H9C9.70832 2.5 10.2095 2.50039 10.6013 2.5324C10.9872 2.56393 11.2228 2.62365 11.408 2.71799C11.7843 2.90973 12.0903 3.2157 12.282 3.59202C12.3764 3.77717 12.4361 4.01276 12.4676 4.39872C12.4996 4.79052 12.5 5.29168 12.5 6V8C12.5 8.70832 12.4996 9.20948 12.4676 9.60128C12.4361 9.98724 12.3764 10.2228 12.282 10.408C12.0903 10.7843 11.7843 11.0903 11.408 11.282C11.2228 11.3764 10.9872 11.4361 10.6013 11.4676C10.2095 11.4996 9.70832 11.5 9 11.5H5C4.29168 11.5 3.79052 11.4996 3.39872 11.4676C3.01276 11.4361 2.77717 11.3764 2.59202 11.282C2.2157 11.0903 1.90973 10.7843 1.71799 10.408C1.62365 10.2228 1.56393 9.98724 1.5324 9.60128C1.50039 9.20948 1.5 8.70832 1.5 8V6C1.5 5.29168 1.50039 4.79052 1.5324 4.39872C1.56393 4.01276 1.62365 3.77717 1.71799 3.59202C1.90973 3.2157 2.2157 2.90973 2.59202 2.71799ZM3.3575 4.65044C3.16444 4.453 2.84788 4.44944 2.65044 4.6425C2.453 4.83556 2.44944 5.15212 2.6425 5.34956L3.29033 6.01209L3.31632 6.03867L3.31632 6.03868C4.06342 6.80275 4.65965 7.41253 5.19157 7.82788C5.74108 8.25697 6.27981 8.52606 6.91641 8.53312C7.55301 8.54019 8.09758 8.28312 8.65648 7.86633C9.19748 7.46289 9.80709 6.8665 10.571 6.11919L10.5975 6.09319L11.3497 5.35741C11.547 5.1643 11.5505 4.84774 11.3574 4.65035C11.1643 4.45295 10.8477 4.44948 10.6503 4.64259L9.89824 5.37836C9.10169 6.15762 8.5395 6.70612 8.05867 7.0647C7.58947 7.41459 7.25751 7.53685 6.92751 7.53319C6.5975 7.52952 6.26834 7.39993 5.80702 7.03971C5.33427 6.67055 4.78438 6.10971 4.00532 5.31297L3.3575 4.65044Z"
        fill="#5C5E63" />
</svg>
    